<svg width="140" height="31" viewBox="0 0 140 31" fill="none" xmlns="http://www.w3.org/2000/svg">
<g clip-path="url(#clip0_0_2307)">
<path d="M36.9774 9.70803H40.256V22.8489H36.9774V9.70803ZM41.4997 17.9071C41.4997 14.6499 43.5347 12.7406 46.5872 12.7406C49.6397 12.7406 51.6747 14.6499 51.6747 17.9071C51.6747 21.1642 49.7527 23.1859 46.5872 23.1859C43.4216 23.1859 41.4997 21.2765 41.4997 17.9071ZM48.5091 17.9071C48.5091 16.11 47.8308 15.0992 46.7002 15.0992C45.5697 15.0992 44.8913 16.11 44.8913 17.9071C44.8913 19.7041 45.5697 20.715 46.7002 20.715C47.8308 20.715 48.5091 19.8164 48.5091 17.9071ZM53.0313 23.5228H56.1969C56.536 24.1967 57.2144 24.646 58.0058 24.5337C59.2494 24.5337 59.9277 23.8598 59.9277 22.8489V21.0519C59.3624 22.1751 58.1188 22.9613 56.8752 22.8489C54.501 22.8489 52.9183 21.0519 52.9183 17.9071C52.9183 14.7622 54.388 12.8529 56.9883 12.8529C58.3449 12.7406 59.5885 13.5268 60.0408 14.7622H59.9277V12.9652H63.2063V22.8489C63.2063 25.2076 61.0583 26.6677 58.0058 26.6677C55.0663 26.6677 53.2574 25.4322 53.0313 23.5228ZM59.8147 17.9071C59.8147 16.3346 59.1363 15.3238 57.8927 15.3238C56.6491 15.3238 55.9708 16.3346 55.9708 17.9071C55.9708 19.4795 56.6491 20.378 57.8927 20.378C59.1363 20.378 59.8147 19.5918 59.8147 17.9071ZM64.3369 17.9071C64.3369 14.6499 66.3719 12.7406 69.4244 12.7406C72.4769 12.7406 74.5119 14.6499 74.5119 17.9071C74.5119 21.1642 72.5899 23.1859 69.4244 23.1859C66.2588 23.1859 64.4499 21.2765 64.3369 17.9071ZM71.3463 17.9071C71.3463 16.11 70.668 15.0992 69.5374 15.0992C68.4069 15.0992 67.7285 16.11 67.7285 17.9071C67.7285 19.7041 68.4069 20.715 69.5374 20.715C70.668 20.715 71.3463 19.8164 71.3463 17.9071ZM75.8686 10.6066C75.8686 9.70803 76.5469 8.92182 77.4513 8.92182C78.3558 8.92182 79.1472 9.59572 79.1472 10.4942C79.1472 11.3928 78.4688 12.179 77.5644 12.179H77.4513C76.6599 12.179 75.8686 11.5051 75.8686 10.6066ZM75.8686 12.9652H79.1472V22.9613H75.8686V12.9652ZM91.1311 17.9071C91.1311 21.1642 89.6613 23.0736 87.1741 23.0736C85.8175 23.1859 84.6869 22.3997 84.1216 21.2765H84.0086V26.2184H80.7299V12.9652H84.0086V14.7622C84.4608 13.5268 85.7044 12.7406 87.0611 12.8529C89.6613 12.8529 91.1311 14.6499 91.1311 17.9071ZM87.7394 17.9071C87.7394 16.3346 86.948 15.3238 85.8174 15.3238C84.6869 15.3238 83.8955 16.3346 83.8955 17.9071C83.8955 19.4795 84.5738 20.4903 85.8174 20.4903C87.0611 20.4903 87.8524 19.5918 87.7394 17.9071ZM96.6708 12.7406C99.3841 12.7406 101.08 13.976 101.08 16.11H98.1405C98.1405 15.4361 97.5752 14.9869 96.6708 14.9869C95.7663 14.9869 95.3141 15.2115 95.3141 15.7731C95.3141 16.3346 95.6533 16.447 96.4447 16.5593L98.5927 17.0085C100.628 17.4578 101.419 18.244 101.419 19.7041C101.419 21.7258 99.4972 23.0736 96.7838 23.0736C94.0705 23.0736 92.1486 21.7258 92.0355 19.7041H95.2011C95.3141 20.4903 95.8794 20.8273 96.7838 20.8273C97.6883 20.8273 98.1405 20.4903 98.1405 20.0411C98.1405 19.4795 97.8013 19.3672 97.0099 19.2549L95.088 18.8056C93.1661 18.3563 92.1486 17.3455 92.1486 15.8854C92.2616 13.976 93.9574 12.7406 96.6708 12.7406ZM112.272 22.9613H109.107V21.0519H108.994C108.655 22.2874 107.411 23.1859 106.054 23.0736C104.132 23.1859 102.55 21.6135 102.437 19.7041V12.9652H105.715V18.6933C105.715 19.8164 106.281 20.4903 107.298 20.4903C108.202 20.4903 108.994 19.7041 108.994 18.8056V12.9652H112.272V22.9613ZM113.855 12.9652H117.021V14.8745H117.134C117.473 13.6391 118.717 12.7406 119.96 12.7406C121.317 12.6282 122.561 13.5268 122.787 14.8745H122.9C123.352 13.5268 124.596 12.7406 125.952 12.7406C127.648 12.6282 129.231 13.976 129.231 15.7731V22.8489H125.952V16.8962C125.952 15.8854 125.5 15.3238 124.596 15.3238C123.804 15.3238 123.126 15.8854 123.126 16.6716V22.8489H119.96V16.8962C119.96 15.8854 119.508 15.3238 118.604 15.3238C117.812 15.3238 117.134 15.9977 117.134 16.7839V22.8489H113.855V12.9652ZM30.5333 10.6066C30.5333 5.10309 26.011 0.610474 20.4713 0.610474C17.6449 0.610474 14.9316 1.73363 13.0096 3.86762H0.347412V30.4864H27.1416V18.0194C29.2896 16.11 30.5333 13.4144 30.5333 10.6066ZM25.3327 10.6066C25.3327 13.3021 23.1846 15.4361 20.4713 15.4361C17.758 15.4361 15.6099 13.3021 15.6099 10.6066C15.6099 7.91098 17.758 5.77699 20.4713 5.77699C23.1846 5.77699 25.3327 7.91098 25.3327 10.6066ZM22.0541 25.3199H5.54797V8.92182H10.5224C10.4094 9.4834 10.4094 10.045 10.4094 10.4942C10.4094 15.9977 14.9316 20.4903 20.4713 20.4903C21.0366 20.4903 21.4888 20.4903 22.0541 20.378V25.3199Z" fill="black"/>
</g>
<defs>
<clipPath id="clip0_0_2307">
<rect width="128.883" height="29.8759" fill="white" transform="translate(0.347412 0.610474)"/>
</clipPath>
</defs>
</svg>
